<!DOCTYPE svg PUBLIC "-//W3C//DTD SVG 1.1//EN" "http://www.w3.org/Graphics/SVG/1.1/DTD/svg11.dtd">

<!-- Uploaded to: SVG Repo, www.svgrepo.com, Transformed by: SVG Repo Mixer Tools -->
<svg fill="#d4ff00" width="800px" height="800px" viewBox="0 0 32 32" xmlns="http://www.w3.org/2000/svg" stroke="#d4ff00">

<g id="SVGRepo_bgCarrier" stroke-width="0"/>

<g id="SVGRepo_tracerCarrier" stroke-linecap="round" stroke-linejoin="round"/>

<g id="SVGRepo_iconCarrier">

<path d="M16 5C9.935 5 5 9.935 5 16c0 6.066 4.935 11 11 11 6.066 0 11-4.934 11-11 0-6.065-4.934-11-11-11zm0 19.25c-4.549 0-8.25-3.701-8.25-8.25 0-4.549 3.701-8.25 8.25-8.25 4.548 0 8.25 3.701 8.25 8.25 0 4.549-3.702 8.25-8.25 8.25z"/>

<path d="M14.969 14.969h-2.948v2.062l5.01-.003v-7.29h-2.062z"/>

</g>

</svg>