<?xml version="1.0" encoding="utf-8"?>
<!DOCTYPE svg PUBLIC "-//W3C//DTD SVG 1.1//EN" "http://www.w3.org/Graphics/SVG/1.1/DTD/svg11.dtd">
<svg version="1.1" xmlns="http://www.w3.org/2000/svg" xmlns:xlink="http://www.w3.org/1999/xlink" x="0px" y="0px" viewBox="0 0 256 256" enable-background="new 0 0 256 256" xml:space="preserve">
<g><g><g><path fill="#000000" d="M112.2,10.4C93.3,13,75.2,20.2,59,31.7C51.5,37,37.6,50.8,32.5,57.9c-8.5,11.9-14.1,23.2-18,36.3c-3.8,12.6-4.6,18.2-4.5,34.4c0,13.1,0.1,15.1,1.7,22.4c4.1,19.4,12.5,37.3,24.6,52c5.3,6.5,16.6,17.1,23.2,21.7c14.1,9.9,27.8,15.9,45,19.7c10.1,2.2,28.3,2.8,39.1,1.2c39.8-5.8,73.3-30.4,90.7-66.5c19.5-40.6,14.3-88.4-13.5-124C195,22,153.3,4.9,112.2,10.4z M145.5,16.2c41.5,6.4,76.3,36,89.4,76c4.3,13.1,5.2,19.4,5.2,36.4c-0.1,13.1-0.3,15.9-1.5,21.8c-5.4,25-18.1,47-36.2,62.8c-52,45.5-131.7,34.5-169.3-23.2C11.5,156.9,9,113.7,26.5,77.7C46,37.9,87.3,13.3,131.4,14.9C135.8,15.1,142.2,15.7,145.5,16.2z"/><path fill="#000000" d="M125,71.3v34.9h2.6h2.6V71.3V36.3h-2.6H125V71.3z"/><path fill="#000000" d="M123.8,120.8c-2.4,1.3-4.6,4.7-4.6,7.1c0,5.8,6.5,9.9,11.5,7.4c6.3-3.3,6.5-11.5,0.3-14.6C128.4,119.4,126.4,119.4,123.8,120.8z"/><path fill="#000000" d="M94.2,157.8l-15.6,15.6l1.9,2l1.9,2l15.9-15.9l15.9-15.8l-1.7-1.8c-1-1-1.9-1.8-2.1-1.8C110.1,142.1,102.9,149.2,94.2,157.8z"/></g></g></g>
</svg>